<svg width="84" height="84" viewBox="0 0 84 84" fill="none" xmlns="http://www.w3.org/2000/svg">
  <mask id="mask0_8763_322220" style="mask-type:alpha" maskUnits="userSpaceOnUse" x="4" y="4" width="76" height="76">
    <circle cx="42" cy="42" r="38" fill="#F1FCFF"/>
  </mask>
  <g mask="url(#mask0_8763_322220)">
    <rect x="-3.59961" y="-2.65039" width="91.2" height="91.2" fill="#F1FCFF"/>
    <path d="M19.7188 66.7198V32.3567L27.1486 20.2832H55.0105L63.3691 32.3567V66.7198H19.7188Z" fill="#F1C25A"
          stroke="#5D4B51" stroke-width="1.85746" stroke-linecap="round"/>
    <path
      d="M20.6484 34.2156V26.7858L42.474 19.8203L62.4413 26.7858V34.2156H52.2257L42.474 25.3927L32.7223 34.2156H20.6484Z"
      fill="#B48828"/>
    <rect x="62.4414" y="33.2871" width="1.85746" height="0.928731" fill="#3F1523"/>
    <rect x="18.791" y="33.2871" width="1.85746" height="0.928731" fill="#3F1523"/>
    <path d="M13.2188 32.3569L25.2923 12.8535H57.7979L69.8714 32.3569H51.2967L41.5451 23.5339L31.7934 32.3569H13.2188Z"
          fill="#F25C55" stroke="#5D4B51" stroke-width="1.85746" stroke-linecap="round" stroke-linejoin="round"/>
    <rect x="25.292" y="37.9307" width="5.57239" height="8.35858" fill="#00C0F5" stroke="#5D4B51"
          stroke-width="1.85746"/>
    <rect x="52.2256" y="37.9307" width="5.57239" height="8.35858" fill="#00C0F5" stroke="#5D4B51"
          stroke-width="1.85746"/>
    <rect x="25.292" y="52.7901" width="5.57239" height="8.35858" fill="#00C0F5" stroke="#5D4B51"
          stroke-width="1.85746"/>
    <rect x="52.2256" y="52.7901" width="5.57239" height="8.35858" fill="#00C0F5" stroke="#5D4B51"
          stroke-width="1.85746"/>
    <path
      d="M44.7951 33.7358V46.2904H38.294V33.7358C38.294 33.3235 38.5807 32.7569 39.2396 32.247C39.8788 31.7523 40.7274 31.4306 41.5444 31.4307C42.3615 31.4308 43.2101 31.7526 43.8494 32.2473C44.5085 32.7574 44.7951 33.3239 44.7951 33.7358Z"
      fill="#00C0F5" stroke="#5D4B51" stroke-width="1.85746"/>
    <path
      d="M46.6526 56.2117V66.721H36.4365V56.2116C36.4366 56.212 36.4366 56.2121 36.4366 56.2121C36.4371 56.2122 36.4425 56.1561 36.4955 56.0338C36.5523 55.9029 36.6464 55.7359 36.7844 55.5411C37.0604 55.1515 37.4729 54.7061 37.9844 54.2853C39.027 53.4275 40.3327 52.79 41.5445 52.7901C42.7563 52.7901 44.0621 53.4277 45.1048 54.2856C45.6163 54.7064 46.0287 55.1518 46.3048 55.5414C46.4428 55.7362 46.5369 55.9032 46.5937 56.0341C46.6466 56.1562 46.652 56.2122 46.6525 56.2122C46.6526 56.2122 46.6526 56.212 46.6526 56.2117Z"
      fill="#F25C55" stroke="#5D4B51" stroke-width="1.85746"/>
    <path d="M53.1543 42.5743L55.9405 38.8594H53.1543V42.5743Z" fill="#00A9D8"/>
    <path d="M39.2227 39.7902L43.8663 34.2178V31.4316H39.2227V34.2178V39.7902Z" fill="#00A9D8"/>
    <path d="M56.8711 42.5732L55.0136 45.3594L56.8711 45.3594L56.8711 42.5732Z" fill="#00A9D8"/>
    <path
      d="M44.7951 33.7358V46.2904H38.294V33.7358C38.294 33.3235 38.5807 32.7569 39.2396 32.247C39.8788 31.7523 40.7274 31.4306 41.5444 31.4307C42.3615 31.4308 43.2101 31.7526 43.8494 32.2473C44.5085 32.7574 44.7951 33.3239 44.7951 33.7358Z"
      stroke="#5D4B51" stroke-width="1.85746"/>
    <path d="M43.8652 42.5732L42.0078 45.3594L43.8652 45.3594L43.8652 42.5732Z" fill="#00A9D8"/>
    <path d="M29.9355 42.5732L28.0781 45.3594L29.9355 45.3594L29.9355 42.5732Z" fill="#00A9D8"/>
    <path d="M26.2207 42.5743L29.0069 38.8594H26.2207V42.5743Z" fill="#00A9D8"/>
    <path d="M29.9355 57.4345L28.0781 60.2207L29.9355 60.2207L29.9355 57.4345Z" fill="#00A9D8"/>
    <path d="M26.2207 57.4337L29.0069 53.7188H26.2207V57.4337Z" fill="#00A9D8"/>
    <path d="M56.8711 57.4345L55.0136 60.2207L56.8711 60.2207L56.8711 57.4345Z" fill="#00A9D8"/>
    <path d="M53.1543 57.4337L55.9405 53.7188H53.1543V57.4337Z" fill="#00A9D8"/>
    <mask id="path-25-outside-1_8763_322220" maskUnits="userSpaceOnUse" x="31.2195" y="40.0744" width="41.05"
          height="31.4963" fill="black">
      <rect fill="white" x="31.2195" y="40.0744" width="41.05" height="31.4963"/>
      <path fill-rule="evenodd" clip-rule="evenodd"
            d="M52.2078 47.5601C52.0969 48.4489 51.2864 49.0796 50.3976 48.9687C49.5088 48.8578 48.8781 48.0474 48.989 47.1586C49.0999 46.2697 49.9103 45.6391 50.7991 45.75C51.688 45.8608 52.3186 46.6713 52.2078 47.5601ZM51.9576 50.305C52.9403 49.8504 53.6732 48.9144 53.8171 47.7609C54.0389 45.9832 52.7776 44.3623 50.9999 44.1406C49.2222 43.9188 47.6014 45.1801 47.3796 46.9578C47.2185 48.2496 47.8404 49.4585 48.8746 50.108L44.8628 53.4581L37.9378 53.4606C36.0406 53.4612 34.5052 54.992 34.5083 56.8796L34.5173 62.348C34.5205 64.2356 36.061 65.7652 37.9581 65.7646L64.7524 65.755C66.6496 65.7544 68.1851 64.2236 68.182 62.336L68.1729 56.8676C68.1698 54.98 66.6293 53.4504 64.7321 53.451L55.9109 53.4542L51.9576 50.305ZM50.2832 51.0447L53.3091 53.4551L47.3942 53.4572L50.2832 51.0447Z"/>
    </mask>
    <path fill-rule="evenodd" clip-rule="evenodd"
          d="M52.2078 47.5601C52.0969 48.4489 51.2864 49.0796 50.3976 48.9687C49.5088 48.8578 48.8781 48.0474 48.989 47.1586C49.0999 46.2697 49.9103 45.6391 50.7991 45.75C51.688 45.8608 52.3186 46.6713 52.2078 47.5601ZM51.9576 50.305C52.9403 49.8504 53.6732 48.9144 53.8171 47.7609C54.0389 45.9832 52.7776 44.3623 50.9999 44.1406C49.2222 43.9188 47.6014 45.1801 47.3796 46.9578C47.2185 48.2496 47.8404 49.4585 48.8746 50.108L44.8628 53.4581L37.9378 53.4606C36.0406 53.4612 34.5052 54.992 34.5083 56.8796L34.5173 62.348C34.5205 64.2356 36.061 65.7652 37.9581 65.7646L64.7524 65.755C66.6496 65.7544 68.1851 64.2236 68.182 62.336L68.1729 56.8676C68.1698 54.98 66.6293 53.4504 64.7321 53.451L55.9109 53.4542L51.9576 50.305ZM50.2832 51.0447L53.3091 53.4551L47.3942 53.4572L50.2832 51.0447Z"
          fill="#F25C55"/>
    <path
      d="M51.9576 50.305L51.3744 49.0442L49.3316 49.9892L51.0921 51.3915L51.9576 50.305ZM48.8746 50.108L49.765 51.1743L51.2327 49.9486L49.6134 48.9316L48.8746 50.108ZM44.8628 53.4581L44.8633 54.8472L45.3668 54.8471L45.7532 54.5244L44.8628 53.4581ZM37.9378 53.4606L37.9383 54.8497L37.9383 54.8497L37.9378 53.4606ZM34.5083 56.8796L33.1192 56.8819L33.1192 56.8819L34.5083 56.8796ZM34.5173 62.348L35.9065 62.3457L35.9065 62.3457L34.5173 62.348ZM37.9581 65.7646L37.9586 67.1537L37.9586 67.1537L37.9581 65.7646ZM64.7524 65.755L64.7529 67.1442L64.7529 67.1442L64.7524 65.755ZM68.182 62.336L66.7928 62.3383L66.7928 62.3383L68.182 62.336ZM68.1729 56.8676L69.5621 56.8653L69.5621 56.8653L68.1729 56.8676ZM64.7321 53.451L64.7326 54.8402L64.7321 53.451ZM55.9109 53.4542L55.0454 54.5407L55.4255 54.8435L55.9114 54.8433L55.9109 53.4542ZM53.3091 53.4551L53.3096 54.8442L57.2807 54.8428L54.1746 52.3686L53.3091 53.4551ZM50.2832 51.0447L51.1487 49.9582L50.2625 49.2522L49.3928 49.9785L50.2832 51.0447ZM47.3942 53.4572L46.5038 52.3909L43.5618 54.8477L47.3947 54.8463L47.3942 53.4572ZM50.2256 50.3472C51.8758 50.553 53.3804 49.3822 53.5862 47.7321L50.8293 47.3881C50.8134 47.5157 50.6971 47.6062 50.5696 47.5903L50.2256 50.3472ZM47.6105 46.9866C47.4047 48.6367 48.5755 50.1413 50.2256 50.3472L50.5696 47.5903C50.442 47.5743 50.3515 47.4581 50.3675 47.3305L47.6105 46.9866ZM50.9711 44.3715C49.321 44.1656 47.8164 45.3365 47.6105 46.9866L50.3675 47.3305C50.3834 47.203 50.4996 47.1125 50.6272 47.1284L50.9711 44.3715ZM53.5862 47.7321C53.7921 46.0819 52.6212 44.5774 50.9711 44.3715L50.6272 47.1284C50.7547 47.1443 50.8452 47.2606 50.8293 47.3881L53.5862 47.7321ZM52.5408 51.5658C53.9404 50.9183 54.9899 49.5818 55.1956 47.9328L52.4387 47.5889C52.3566 48.2469 51.9401 48.7825 51.3744 49.0442L52.5408 51.5658ZM55.1956 47.9328C55.5123 45.3939 53.7108 43.0789 51.1719 42.7621L50.8279 45.519C51.8443 45.6458 52.5655 46.5725 52.4387 47.5889L55.1956 47.9328ZM51.1719 42.7621C48.6329 42.4454 46.3179 44.2469 46.0012 46.7858L48.7581 47.1298C48.8849 46.1134 49.8116 45.3922 50.8279 45.519L51.1719 42.7621ZM46.0012 46.7858C45.7707 48.6329 46.6617 50.3586 48.1358 51.2844L49.6134 48.9316C49.0192 48.5584 48.6662 47.8662 48.7581 47.1298L46.0012 46.7858ZM47.9842 49.0417L43.9724 52.3918L45.7532 54.5244L49.765 51.1743L47.9842 49.0417ZM44.8623 52.069L37.9373 52.0714L37.9383 54.8497L44.8633 54.8472L44.8623 52.069ZM37.9373 52.0714C35.2789 52.0724 33.1148 54.2197 33.1192 56.8819L35.8974 56.8773C35.8956 55.7642 36.8024 54.8501 37.9383 54.8497L37.9373 52.0714ZM33.1192 56.8819L33.1282 62.3503L35.9065 62.3457L35.8974 56.8773L33.1192 56.8819ZM33.1282 62.3503C33.1326 65.011 35.3016 67.1547 37.9586 67.1537L37.9577 64.3754C36.8203 64.3758 35.9083 63.4602 35.9065 62.3457L33.1282 62.3503ZM37.9586 67.1537L64.7529 67.1442L64.7519 64.3659L37.9577 64.3754L37.9586 67.1537ZM64.7529 67.1442C67.4114 67.1432 69.5755 64.9959 69.5711 62.3337L66.7928 62.3383C66.7947 63.4514 65.8879 64.3655 64.7519 64.3659L64.7529 67.1442ZM69.5711 62.3337L69.5621 56.8653L66.7838 56.8699L66.7928 62.3383L69.5711 62.3337ZM69.5621 56.8653C69.5577 54.2046 67.3887 52.0609 64.7316 52.0619L64.7326 54.8402C65.8699 54.8398 66.7819 55.7554 66.7838 56.8699L69.5621 56.8653ZM64.7316 52.0619L55.9104 52.065L55.9114 54.8433L64.7326 54.8402L64.7316 52.0619ZM56.7765 52.3676L52.8231 49.2185L51.0921 51.3915L55.0454 54.5407L56.7765 52.3676ZM54.1746 52.3686L51.1487 49.9582L49.4177 52.1313L52.4436 54.5416L54.1746 52.3686ZM47.3947 54.8463L53.3096 54.8442L53.3086 52.066L47.3937 52.0681L47.3947 54.8463ZM49.3928 49.9785L46.5038 52.3909L48.2846 54.5235L51.1736 52.111L49.3928 49.9785Z"
      fill="#F9F9F9" mask="url(#path-25-outside-1_8763_322220)"/>
    <path
      d="M41.9717 57.4312C41.923 57.5089 41.8711 57.5671 41.8159 57.6059C41.764 57.6446 41.6959 57.6639 41.6117 57.6637C41.5371 57.6635 41.4561 57.6406 41.3686 57.595C41.2844 57.5462 41.1873 57.4924 41.0771 57.4338C40.9702 57.3752 40.8471 57.323 40.7078 57.2773C40.5685 57.2283 40.4097 57.2036 40.2314 57.2031C39.9235 57.2024 39.6933 57.2682 39.5408 57.4007C39.3915 57.53 39.3167 57.7065 39.3165 57.9301C39.3163 58.0727 39.3615 58.1912 39.4521 58.2854C39.5428 58.3796 39.661 58.4609 39.8067 58.5294C39.9558 58.5978 40.1242 58.6615 40.3121 58.7203C40.5033 58.7759 40.6977 58.8396 40.8953 58.9114C41.093 58.98 41.2857 59.0615 41.4736 59.156C41.6647 59.2505 41.8331 59.3708 41.9788 59.5171C42.1277 59.6633 42.2474 59.8419 42.3379 60.0528C42.4284 60.2605 42.4734 60.5118 42.4731 60.8068C42.4726 61.1341 42.4155 61.4403 42.3017 61.7252C42.1879 62.0102 42.0223 62.2593 41.8048 62.4727C41.5906 62.6829 41.3246 62.8491 41.0068 62.9715C40.6922 63.0906 40.334 63.1496 39.9321 63.1486C39.7117 63.1481 39.4864 63.1248 39.2563 63.0788C39.0295 63.0329 38.8092 62.9691 38.5954 62.8875C38.3815 62.8027 38.1807 62.7033 37.9929 62.5894C37.805 62.4755 37.6415 62.3486 37.5023 62.2089L37.9895 61.442C38.0252 61.3837 38.0755 61.3368 38.1404 61.3013C38.2052 61.2659 38.275 61.2482 38.3495 61.2484C38.4467 61.2486 38.5439 61.2797 38.6411 61.3415C38.7415 61.4034 38.8532 61.4717 38.9763 61.5466C39.1026 61.6214 39.2468 61.6899 39.4088 61.7519C39.5708 61.8139 39.762 61.8452 39.9824 61.8457C40.2806 61.8465 40.5124 61.7823 40.6779 61.653C40.8434 61.5205 40.9263 61.3117 40.9267 61.0265C40.9269 60.8611 40.8817 60.7265 40.791 60.6226C40.7004 60.5186 40.5806 60.4324 40.4316 60.364C40.2858 60.2955 40.119 60.2351 39.931 60.1828C39.7431 60.1304 39.5503 60.0732 39.3527 60.0111C39.155 59.9458 38.9623 59.8675 38.7744 59.7763C38.5865 59.6818 38.4181 59.5598 38.2692 59.4103C38.1236 59.2576 38.0055 59.0693 37.915 58.8454C37.8246 58.6183 37.7795 58.3395 37.78 58.0088C37.7803 57.7431 37.8341 57.4839 37.9414 57.2313C38.0487 56.9788 38.2062 56.7539 38.4139 56.5567C38.6216 56.3595 38.8762 56.203 39.1778 56.0871C39.4794 55.9679 39.8247 55.9088 40.2137 55.9098C40.4308 55.9104 40.6415 55.9287 40.8456 55.9649C41.0531 55.9978 41.2491 56.0486 41.4338 56.1171C41.6184 56.1824 41.7901 56.2623 41.9488 56.3567C42.1108 56.4478 42.2549 56.5519 42.3811 56.6689L41.9717 57.4312ZM51.0609 59.5548C51.0602 60.067 50.9705 60.5432 50.7916 60.9836C50.616 61.4239 50.3676 61.8074 50.0463 62.134C49.725 62.4573 49.3373 62.7107 48.8833 62.8943C48.4325 63.0779 47.9316 63.169 47.3806 63.1676C46.8295 63.1662 46.3272 63.0726 45.8737 62.8867C45.4202 62.7007 45.0315 62.4453 44.7078 62.1203C44.3873 61.7921 44.1382 61.4074 43.9605 60.9661C43.7861 60.5249 43.6992 60.0482 43.6998 59.536C43.7005 59.0239 43.7886 58.5477 43.9642 58.1073C44.1431 57.6669 44.3931 57.2851 44.7144 56.9618C45.039 56.6385 45.4283 56.385 45.8823 56.2014C46.3363 56.0178 46.8388 55.9267 47.3899 55.9281C47.9409 55.9295 48.4416 56.0248 48.8919 56.214C49.3454 56.3999 49.7324 56.6553 50.0529 56.9803C50.3734 57.3052 50.6208 57.6883 50.7953 58.1296C50.973 58.5709 51.0615 59.0459 51.0609 59.5548ZM49.3786 59.5505C49.3791 59.2005 49.3341 58.8859 49.2437 58.607C49.1533 58.3247 49.0223 58.0862 48.8508 57.8912C48.6825 57.6963 48.4753 57.5467 48.229 57.4424C47.9828 57.338 47.7025 57.2854 47.3881 57.2846C47.0705 57.2838 46.7868 57.3349 46.5371 57.438C46.2906 57.5411 46.0813 57.6897 45.9093 57.8837C45.7405 58.0778 45.6105 58.3157 45.5194 58.5975C45.4283 58.876 45.3825 59.1903 45.3821 59.5403C45.3816 59.8936 45.4266 60.2114 45.517 60.4936C45.6074 60.7726 45.7367 61.0096 45.905 61.2045C46.0766 61.3994 46.2854 61.549 46.5317 61.6534C46.7811 61.7545 47.0647 61.8055 47.3823 61.8063C47.6967 61.8071 47.9772 61.7576 48.2236 61.6577C48.4701 61.5546 48.6777 61.406 48.8465 61.212C49.0186 61.0179 49.1502 60.7817 49.2413 60.5031C49.3324 60.2214 49.3782 59.9038 49.3786 59.5505ZM54.265 61.7947L56.8905 61.8014L56.8888 63.1141L52.62 63.1032L52.6291 56.0193L54.2724 56.0235L54.265 61.7947ZM64.8724 59.5901C64.8717 60.1022 64.782 60.5752 64.6032 61.0091C64.4276 61.4398 64.1791 61.8135 63.8578 62.1303C63.5365 62.4439 63.1489 62.6893 62.6949 62.8664C62.2441 63.0403 61.7432 63.1265 61.1922 63.1251L58.4403 63.1181L58.4494 56.0342L61.2013 56.0412C61.7523 56.0426 62.253 56.133 62.7033 56.3124C63.1569 56.4919 63.5439 56.7392 63.8644 57.0544C64.1849 57.3696 64.4323 57.7446 64.6068 58.1794C64.7845 58.611 64.8731 59.0812 64.8724 59.5901ZM63.1902 59.5858C63.1906 59.2357 63.1456 58.9196 63.0552 58.6374C62.9648 58.3551 62.8339 58.1166 62.6623 57.9216C62.494 57.7235 62.2868 57.5722 62.0406 57.4679C61.7944 57.3603 61.5141 57.3061 61.1997 57.3053L60.1009 57.3025L60.095 61.8582L61.1938 61.861C61.5082 61.8618 61.7887 61.8106 62.0351 61.7075C62.2816 61.6012 62.4892 61.451 62.658 61.257C62.8301 61.0597 62.9617 60.8202 63.0528 60.5384C63.1439 60.2566 63.1897 59.9391 63.1902 59.5858Z"
      fill="#F9F9F9"/>
  </g>
  <circle cx="42" cy="42" r="40" stroke="#F1FCFF" stroke-width="4"/>
</svg>
