<svg width="84" height="84" viewBox="0 0 84 84" fill="none" xmlns="http://www.w3.org/2000/svg">
<mask id="mask0_8763_322160" style="mask-type:alpha" maskUnits="userSpaceOnUse" x="4" y="4" width="76" height="76">
<circle cx="42" cy="42" r="38" fill="#F1FCFF"/>
</mask>
<g mask="url(#mask0_8763_322160)">
<rect x="-3.59961" y="-2.65039" width="91.2" height="91.2" fill="#F1FCFF"/>
<path d="M22.752 59.2301V29.6463L29.1485 19.252H53.1353L60.3314 29.6463V59.2301H22.752Z" fill="#F1C25A" stroke="#5D4B51" stroke-width="1.59913" stroke-linecap="round"/>
<path d="M23.5527 31.2467V24.8502L42.3428 18.8535L59.5331 24.8502V31.2467H50.7382L42.3428 23.6509L33.9474 31.2467H23.5527Z" fill="#B48828"/>
<rect x="59.5312" y="30.4492" width="1.59913" height="0.799563" fill="#3F1523"/>
<rect x="21.9531" y="30.4492" width="1.59913" height="0.799563" fill="#3F1523"/>
<path d="M17.1562 29.6463L27.5506 12.8555H55.5353L65.9296 29.6463H49.9383L41.5429 22.0504L33.1475 29.6463H17.1562Z" fill="#F25C55" stroke="#5D4B51" stroke-width="1.59913" stroke-linecap="round" stroke-linejoin="round"/>
<rect x="27.5496" y="34.4441" width="4.79738" height="7.19607" fill="#00C0F5" stroke="#5D4B51" stroke-width="1.59913"/>
<rect x="50.739" y="34.4441" width="4.79738" height="7.19607" fill="#00C0F5" stroke="#5D4B51" stroke-width="1.59913"/>
<rect x="27.5496" y="47.2371" width="4.79738" height="7.19607" fill="#00C0F5" stroke="#5D4B51" stroke-width="1.59913"/>
<rect x="50.739" y="47.2371" width="4.79738" height="7.19607" fill="#00C0F5" stroke="#5D4B51" stroke-width="1.59913"/>
<path d="M44.3418 30.8329V41.6414H38.7449V30.8329C38.7449 30.4779 38.9917 29.9901 39.559 29.5511C40.1093 29.1253 40.8399 28.8483 41.5433 28.8484C42.2467 28.8484 42.9773 29.1256 43.5277 29.5515C44.0951 29.9906 44.3418 30.4783 44.3418 30.8329Z" fill="#00C0F5" stroke="#5D4B51" stroke-width="1.59913"/>
<path d="M45.9405 50.1828V59.2305H37.1453V50.1828C37.1453 50.183 37.1453 50.1832 37.1453 50.1832C37.1458 50.1832 37.1504 50.1349 37.196 50.0297C37.2449 49.917 37.3259 49.7732 37.4447 49.6055C37.6824 49.2701 38.0375 48.8866 38.4778 48.5243C39.3754 47.7859 40.4996 47.237 41.5428 47.2371C42.5861 47.2371 43.7103 47.7861 44.6079 48.5246C45.0483 48.8869 45.4034 49.2704 45.641 49.6057C45.7598 49.7734 45.8409 49.9172 45.8897 50.0299C45.9353 50.135 45.94 50.1833 45.9404 50.1832C45.9404 50.1832 45.9405 50.1831 45.9405 50.1828Z" fill="#F25C55" stroke="#5D4B51" stroke-width="1.59913"/>
<path d="M51.5391 38.4424L53.9378 35.2441H51.5391V38.4424Z" fill="#00A9D8"/>
<path d="M39.5449 36.0437L43.5427 31.2463V28.8477H39.5449V31.2463V36.0437Z" fill="#00A9D8"/>
<path d="M54.7363 38.4412L53.1372 40.8398L54.7363 40.8398L54.7363 38.4412Z" fill="#00A9D8"/>
<path d="M44.3418 30.8329V41.6414H38.7449V30.8329C38.7449 30.4779 38.9917 29.9901 39.559 29.5511C40.1093 29.1253 40.8399 28.8483 41.5433 28.8484C42.2467 28.8484 42.9773 29.1256 43.5277 29.5515C44.0951 29.9906 44.3418 30.4783 44.3418 30.8329Z" stroke="#5D4B51" stroke-width="1.59913"/>
<path d="M43.541 38.4412L41.9419 40.8398L43.541 40.8398L43.541 38.4412Z" fill="#00A9D8"/>
<path d="M31.5488 38.4412L29.9497 40.8398L31.5488 40.8398L31.5488 38.4412Z" fill="#00A9D8"/>
<path d="M28.3496 38.4424L30.7483 35.2441H28.3496V38.4424Z" fill="#00A9D8"/>
<path d="M31.5488 51.2341L29.9497 53.6328L31.5488 53.6328L31.5488 51.2341Z" fill="#00A9D8"/>
<path d="M28.3496 51.2354L30.7483 48.0371H28.3496V51.2354Z" fill="#00A9D8"/>
<path d="M54.7363 51.2341L53.1372 53.6328L54.7363 53.6328L54.7363 51.2341Z" fill="#00A9D8"/>
<path d="M51.5391 51.2354L53.9378 48.0371H51.5391V51.2354Z" fill="#00A9D8"/>
<circle cx="21.3884" cy="57.9958" r="9.90233" fill="#F0C35B" stroke="#F9F9F9" stroke-width="1.41462"/>
<circle cx="21.3898" cy="57.9952" r="7.7804" fill="#F0C35B"/>
<circle cx="21.7567" cy="58.3602" r="7.41488" stroke="#DFB143" stroke-width="2.19313"/>
<path fill-rule="evenodd" clip-rule="evenodd" d="M21.3887 51.0726C17.5649 51.0726 14.4651 54.1723 14.4651 57.9961C14.4651 61.8199 17.5649 64.9197 21.3887 64.9197C25.2125 64.9197 28.3122 61.8199 28.3122 57.9961C28.3122 54.1723 25.2125 51.0726 21.3887 51.0726ZM12.1934 57.9961C12.1934 52.9177 16.3103 48.8008 21.3887 48.8008C26.4671 48.8008 30.584 52.9177 30.584 57.9961C30.584 63.0746 26.4671 67.1914 21.3887 67.1914C16.3103 67.1914 12.1934 63.0746 12.1934 57.9961Z" fill="#F5615F"/>
<path d="M27.1172 59.3086C26.3639 61.4083 25.1882 62.698 23.192 63.5546" stroke="white" stroke-opacity="0.5" stroke-width="0.563797" stroke-linecap="round"/>
<path d="M22.3672 59.5198C22.3672 59.2482 22.2925 59.0198 22.1432 58.8347C21.994 58.6466 21.7372 58.4734 21.373 58.3152C20.8385 58.1211 20.4489 57.8688 20.2041 57.5583C19.9593 57.2448 19.8369 56.8478 19.8369 56.3671C19.8369 55.8775 19.9548 55.4789 20.1907 55.1714C20.4295 54.8609 20.7535 54.6728 21.1625 54.6071V53.6219H21.7939V54.6116C22.2119 54.6862 22.5343 54.8997 22.7612 55.252C22.9911 55.6013 23.1061 56.079 23.1061 56.6851H22.3224C22.3224 56.2701 22.2462 55.9372 22.094 55.6864C21.9417 55.4356 21.7327 55.3102 21.467 55.3102C21.2013 55.3102 20.9938 55.4013 20.8445 55.5834C20.6982 55.7655 20.6251 56.0223 20.6251 56.3537C20.6251 56.6552 20.7042 56.897 20.8624 57.0792C21.0237 57.2583 21.2849 57.424 21.6461 57.5762C22.1865 57.7793 22.5732 58.033 22.806 58.3376C23.0419 58.6391 23.1598 59.0302 23.1598 59.5109C23.1598 60.0005 23.0344 60.4006 22.7836 60.7111C22.5329 61.0216 22.1731 61.2082 21.7044 61.2709V62.1307H21.0819V61.2709C20.6102 61.2022 20.2489 60.9962 19.9981 60.6529C19.7473 60.3095 19.6219 59.8512 19.6219 59.278H20.4101C20.4101 59.693 20.4937 60.0125 20.6609 60.2364C20.8281 60.4603 21.064 60.5723 21.3685 60.5723C21.679 60.5723 21.9223 60.4797 22.0985 60.2946C22.2776 60.1065 22.3672 59.8483 22.3672 59.5198Z" fill="#5D4B51"/>
<circle cx="41.5446" cy="67.7262" r="11.0633" fill="#F0C35B" stroke="#F9F9F9" stroke-width="1.58047"/>
<circle cx="41.5442" cy="67.7238" r="8.69259" fill="#F0C35B"/>
<circle cx="41.9561" cy="68.1338" r="8.28422" stroke="#DFB143" stroke-width="2.45026"/>
<path fill-rule="evenodd" clip-rule="evenodd" d="M41.5449 59.9913C37.2728 59.9913 33.8096 63.4545 33.8096 67.7265C33.8096 71.9986 37.2728 75.4618 41.5449 75.4618C45.817 75.4618 49.2802 71.9986 49.2802 67.7265C49.2802 63.4545 45.817 59.9913 41.5449 59.9913ZM31.2715 67.7265C31.2715 62.0527 35.8711 57.4531 41.5449 57.4531C47.2188 57.4531 51.8183 62.0527 51.8183 67.7265C51.8183 73.4004 47.2188 78 41.5449 78C35.8711 78 31.2715 73.4004 31.2715 67.7265Z" fill="#F5615F"/>
<path d="M47.9453 69.1934C47.1037 71.5392 45.7902 72.9802 43.5599 73.9372" stroke="white" stroke-opacity="0.5" stroke-width="0.629898" stroke-linecap="round"/>
<path d="M42.6339 70.2565C42.6339 69.953 42.5505 69.6978 42.3838 69.491C42.217 69.2809 41.9301 69.0874 41.5232 68.9106C40.9261 68.6938 40.4908 68.412 40.2173 68.0651C39.9438 67.7148 39.807 67.2712 39.807 66.7342C39.807 66.1871 39.9388 65.7418 40.2023 65.3983C40.4691 65.0514 40.8311 64.8412 41.288 64.7678V63.6671H41.9935V64.7728C42.4605 64.8562 42.8207 65.0947 43.0742 65.4883C43.3311 65.8786 43.4595 66.4123 43.4595 67.0894H42.5839C42.5839 66.6258 42.4988 66.2538 42.3287 65.9736C42.1586 65.6935 41.9251 65.5534 41.6283 65.5534C41.3314 65.5534 41.0996 65.6551 40.9328 65.8586C40.7693 66.062 40.6876 66.3489 40.6876 66.7191C40.6876 67.056 40.776 67.3262 40.9528 67.5297C41.1329 67.7298 41.4248 67.915 41.8284 68.0851C42.4321 68.3119 42.8641 68.5954 43.1243 68.9356C43.3878 69.2725 43.5195 69.7095 43.5195 70.2465C43.5195 70.7936 43.3794 71.2405 43.0993 71.5874C42.8191 71.9343 42.4171 72.1428 41.8934 72.2129V73.1735H41.198V72.2129C40.6709 72.1361 40.2673 71.906 39.9871 71.5224C39.707 71.1388 39.5669 70.6268 39.5669 69.9864H40.4475C40.4475 70.45 40.5409 70.8069 40.7276 71.0571C40.9144 71.3073 41.178 71.4323 41.5182 71.4323C41.8651 71.4323 42.1369 71.3289 42.3337 71.1221C42.5339 70.912 42.6339 70.6235 42.6339 70.2565Z" fill="#5D4B51"/>
<circle cx="62.8884" cy="57.9977" r="9.90233" fill="#F0C35B" stroke="#F9F9F9" stroke-width="1.41462"/>
<circle cx="62.8878" cy="57.9952" r="7.7804" fill="#F0C35B"/>
<circle cx="63.2547" cy="58.3602" r="7.41488" stroke="#DFB143" stroke-width="2.19313"/>
<path fill-rule="evenodd" clip-rule="evenodd" d="M62.8887 51.0745C59.0649 51.0745 55.9651 54.1743 55.9651 57.9981C55.9651 61.8218 59.0649 64.9216 62.8887 64.9216C66.7125 64.9216 69.8122 61.8218 69.8122 57.9981C69.8122 54.1743 66.7125 51.0745 62.8887 51.0745ZM53.6934 57.9981C53.6934 52.9196 57.8103 48.8027 62.8887 48.8027C67.9671 48.8027 72.084 52.9196 72.084 57.9981C72.084 63.0765 67.9671 67.1934 62.8887 67.1934C57.8103 67.1934 53.6934 63.0765 53.6934 57.9981Z" fill="#F5615F"/>
<path d="M68.6152 59.3105C67.8619 61.4102 66.6862 62.7 64.69 63.5565" stroke="white" stroke-opacity="0.5" stroke-width="0.563797" stroke-linecap="round"/>
<path d="M63.8632 59.5218C63.8632 59.2501 63.7886 59.0217 63.6393 58.8366C63.4901 58.6485 63.2333 58.4754 62.8691 58.3171C62.3346 58.1231 61.945 57.8708 61.7002 57.5603C61.4554 57.2468 61.333 56.8497 61.333 56.369C61.333 55.8794 61.4509 55.4808 61.6868 55.1733C61.9256 54.8628 62.2496 54.6747 62.6586 54.6091V53.6238H63.29V54.6135C63.708 54.6882 64.0304 54.9016 64.2573 55.2539C64.4872 55.6033 64.6022 56.0809 64.6022 56.687H63.8185C63.8185 56.272 63.7423 55.9391 63.5901 55.6883C63.4378 55.4376 63.2288 55.3122 62.9631 55.3122C62.6974 55.3122 62.4899 55.4032 62.3406 55.5853C62.1943 55.7675 62.1212 56.0242 62.1212 56.3556C62.1212 56.6572 62.2003 56.899 62.3585 57.0811C62.5197 57.2602 62.781 57.4259 63.1422 57.5782C63.6826 57.7812 64.0693 58.035 64.3021 58.3395C64.538 58.6411 64.6559 59.0322 64.6559 59.5128C64.6559 60.0025 64.5305 60.4025 64.2797 60.713C64.0289 61.0235 63.6692 61.2101 63.2005 61.2728V62.1327H62.578V61.2728C62.1062 61.2042 61.745 60.9982 61.4942 60.6548C61.2434 60.3115 61.118 59.8532 61.118 59.28H61.9062C61.9062 59.695 61.9898 60.0144 62.157 60.2383C62.3242 60.4622 62.5601 60.5742 62.8646 60.5742C63.1751 60.5742 63.4184 60.4817 63.5945 60.2965C63.7737 60.1085 63.8632 59.8502 63.8632 59.5218Z" fill="#5D4B51"/>
</g>
<circle cx="42" cy="42" r="40" stroke="#F1FCFF" stroke-width="4"/>
</svg>
