<svg width="84" height="84" viewBox="0 0 84 84" fill="none" xmlns="http://www.w3.org/2000/svg">
<mask id="mask0_8763_322091" style="mask-type:alpha" maskUnits="userSpaceOnUse" x="4" y="4" width="76" height="76">
<circle cx="42" cy="42" r="38" fill="#F1FCFF"/>
</mask>
<g mask="url(#mask0_8763_322091)">
<rect x="-3.59961" y="-2.65039" width="91.2" height="91.2" fill="#F1FCFF"/>
<path d="M22.7539 59.2281V29.6443L29.1504 19.25H53.1373L60.3334 29.6443V59.2281H22.7539Z" fill="#F1C25A" stroke="#5D4B51" stroke-width="1.59913" stroke-linecap="round"/>
<path d="M23.5566 31.2448V24.8483L42.3467 18.8516L59.537 24.8483V31.2448H50.7421L42.3467 23.6489L33.9513 31.2448H23.5566Z" fill="#B48828"/>
<rect x="59.5352" y="30.4473" width="1.59913" height="0.799563" fill="#3F1523"/>
<rect x="21.957" y="30.4473" width="1.59913" height="0.799563" fill="#3F1523"/>
<path d="M17.1582 29.6443L27.5525 12.8535H55.5372L65.9315 29.6443H49.9403L41.5449 22.0485L33.1495 29.6443H17.1582Z" fill="#F25C55" stroke="#5D4B51" stroke-width="1.59913" stroke-linecap="round" stroke-linejoin="round"/>
<rect x="27.5515" y="34.4421" width="4.79738" height="7.19607" fill="#00C0F5" stroke="#5D4B51" stroke-width="1.59913"/>
<rect x="50.739" y="34.4421" width="4.79738" height="7.19607" fill="#00C0F5" stroke="#5D4B51" stroke-width="1.59913"/>
<rect x="27.5515" y="47.2351" width="4.79738" height="7.19607" fill="#00C0F5" stroke="#5D4B51" stroke-width="1.59913"/>
<rect x="50.739" y="47.2351" width="4.79738" height="7.19607" fill="#00C0F5" stroke="#5D4B51" stroke-width="1.59913"/>
<path d="M44.3438 30.831V41.6394H38.7468V30.831C38.7468 30.476 38.9937 29.9882 39.561 29.5492C40.1113 29.1234 40.8418 28.8464 41.5452 28.8464C42.2486 28.8465 42.9792 29.1236 43.5296 29.5495C44.097 29.9886 44.3438 30.4763 44.3438 30.831Z" fill="#00C0F5" stroke="#5D4B51" stroke-width="1.59913"/>
<path d="M45.9424 50.1808V59.2286H37.1472V50.1808C37.1472 50.1811 37.1472 50.1812 37.1473 50.1812C37.1477 50.1813 37.1524 50.133 37.198 50.0277C37.2468 49.915 37.3279 49.7712 37.4467 49.6035C37.6843 49.2681 38.0394 48.8847 38.4798 48.5224C39.3774 47.7839 40.5015 47.2351 41.5448 47.2351C42.588 47.2352 43.7122 47.7841 44.6099 48.5226C45.0502 48.8849 45.4053 49.2684 45.643 49.6038C45.7618 49.7715 45.8428 49.9152 45.8917 50.0279C45.9373 50.1331 45.9419 50.1813 45.9424 50.1813C45.9424 50.1813 45.9424 50.1811 45.9424 50.1808Z" fill="#F25C55" stroke="#5D4B51" stroke-width="1.59913"/>
<path d="M51.5391 38.4404L53.9378 35.2422H51.5391V38.4404Z" fill="#00A9D8"/>
<path d="M39.5469 36.0418L43.5447 31.2444V28.8457H39.5469V31.2444V36.0418Z" fill="#00A9D8"/>
<path d="M54.7383 38.4392L53.1392 40.8379L54.7383 40.8379L54.7383 38.4392Z" fill="#00A9D8"/>
<path d="M44.3438 30.831V41.6394H38.7468V30.831C38.7468 30.476 38.9937 29.9882 39.561 29.5492C40.1113 29.1234 40.8418 28.8464 41.5452 28.8464C42.2486 28.8465 42.9792 29.1236 43.5296 29.5495C44.097 29.9886 44.3438 30.4763 44.3438 30.831Z" stroke="#5D4B51" stroke-width="1.59913"/>
<path d="M43.543 38.4392L41.9438 40.8379L43.543 40.8379L43.543 38.4392Z" fill="#00A9D8"/>
<path d="M31.5508 38.4392L29.9517 40.8379L31.5508 40.8379L31.5508 38.4392Z" fill="#00A9D8"/>
<path d="M28.3516 38.4404L30.7503 35.2422H28.3516V38.4404Z" fill="#00A9D8"/>
<path d="M31.5508 51.2341L29.9517 53.6328L31.5508 53.6328L31.5508 51.2341Z" fill="#00A9D8"/>
<path d="M28.3516 51.2334L30.7503 48.0352H28.3516V51.2334Z" fill="#00A9D8"/>
<path d="M54.7383 51.2341L53.1392 53.6328L54.7383 53.6328L54.7383 51.2341Z" fill="#00A9D8"/>
<path d="M51.5391 51.2334L53.9378 48.0352H51.5391V51.2334Z" fill="#00A9D8"/>
<mask id="path-25-outside-1_8763_322091" maskUnits="userSpaceOnUse" x="31.3809" y="54.25" width="20" height="26" fill="black">
<rect fill="white" x="31.3809" y="54.25" width="20" height="26"/>
<path fill-rule="evenodd" clip-rule="evenodd" d="M43.7557 65.7607C45.4009 64.9366 46.5303 63.2351 46.5303 61.2697C46.5303 58.4974 44.2829 56.25 41.5106 56.25C38.7383 56.25 36.4908 58.4974 36.4908 61.2697C36.4908 63.233 37.6179 64.933 39.2603 65.7581C36.5398 66.4503 33.9735 68.1311 33.9735 68.9062C33.1903 72.429 33.1766 74.465 33.9735 78.0001H49.0328C49.6136 74.6584 49.7126 72.7254 49.0328 68.9062C49.0328 68.1324 46.4726 66.4545 43.7557 65.7607Z"/>
</mask>
<path fill-rule="evenodd" clip-rule="evenodd" d="M43.7557 65.7607C45.4009 64.9366 46.5303 63.2351 46.5303 61.2697C46.5303 58.4974 44.2829 56.25 41.5106 56.25C38.7383 56.25 36.4908 58.4974 36.4908 61.2697C36.4908 63.233 37.6179 64.933 39.2603 65.7581C36.5398 66.4503 33.9735 68.1311 33.9735 68.9062C33.1903 72.429 33.1766 74.465 33.9735 78.0001H49.0328C49.6136 74.6584 49.7126 72.7254 49.0328 68.9062C49.0328 68.1324 46.4726 66.4545 43.7557 65.7607Z" fill="#5D4B51"/>
<path d="M43.7556 65.7607L43.0001 64.2524L38.9588 66.2767L43.3382 67.3951L43.7556 65.7607ZM39.2602 65.7581L39.6762 67.3929L44.0548 66.2788L40.0175 64.2507L39.2602 65.7581ZM33.9735 68.9062L35.6201 69.2723L35.6604 69.0915V68.9062H33.9735ZM33.9735 78.0001L32.3279 78.3711L32.6245 79.687H33.9735V78.0001ZM49.0327 78.0001V79.687H50.4517L50.6947 78.2889L49.0327 78.0001ZM49.0327 68.9062H47.3458V69.0551L47.3719 69.2018L49.0327 68.9062ZM44.8434 61.2697C44.8434 62.5722 44.0966 63.7032 43.0001 64.2524L44.5111 67.2689C46.705 66.17 48.2171 63.898 48.2171 61.2697H44.8434ZM41.5105 57.9369C43.3512 57.9369 44.8434 59.4291 44.8434 61.2697H48.2171C48.2171 57.5658 45.2145 54.5631 41.5105 54.5631V57.9369ZM38.1776 61.2697C38.1776 59.4291 39.6698 57.9369 41.5105 57.9369V54.5631C37.8065 54.5631 34.8039 57.5658 34.8039 61.2697H38.1776ZM40.0175 64.2507C38.9229 63.7008 38.1776 62.5708 38.1776 61.2697H34.8039C34.8039 63.8952 36.3128 66.1652 38.503 67.2655L40.0175 64.2507ZM35.6604 68.9062C35.6604 69.2527 35.528 69.4572 35.5219 69.4671C35.503 69.4975 35.5149 69.4706 35.5976 69.3896C35.7609 69.2295 36.0543 68.9999 36.4803 68.738C37.326 68.218 38.4909 67.6945 39.6762 67.3929L38.8443 64.1233C37.3091 64.5139 35.8306 65.1769 34.7131 65.8641C34.1574 66.2058 33.6392 66.585 33.2364 66.9798C33.0359 67.1762 32.8261 67.4131 32.6562 67.6865C32.4991 67.9393 32.2866 68.3659 32.2866 68.9062H35.6604ZM35.6191 77.6291C35.2364 75.9317 35.0663 74.6722 35.0678 73.4506C35.0693 72.2278 35.2428 70.9695 35.6201 69.2723L32.3268 68.54C31.9209 70.3657 31.6959 71.8868 31.694 73.4465C31.6921 75.0074 31.9136 76.5334 32.3279 78.3711L35.6191 77.6291ZM49.0327 76.3132H33.9735V79.687H49.0327V76.3132ZM47.3719 69.2018C48.0131 72.8038 47.9224 74.5374 47.3707 77.7112L50.6947 78.2889C51.3047 74.7794 51.412 72.6471 50.6935 68.6106L47.3719 69.2018ZM43.3382 67.3951C44.5222 67.6975 45.6851 68.2208 46.5289 68.7401C46.9539 69.0016 47.2465 69.2308 47.4092 69.3903C47.4916 69.4711 47.5033 69.4978 47.4843 69.4672C47.4781 69.4571 47.3458 69.2526 47.3458 68.9062H50.7196C50.7196 68.3664 50.5074 67.9401 50.3505 67.6875C50.1809 67.4143 49.9713 67.1775 49.7712 66.9813C49.369 66.587 48.8518 66.2082 48.2971 65.8668C47.1816 65.1803 45.7059 64.5177 44.173 64.1263L43.3382 67.3951Z" fill="#F9F9F9" mask="url(#path-25-outside-1_8763_322091)"/>
<mask id="path-27-outside-2_8763_322091" maskUnits="userSpaceOnUse" x="12.5508" y="45.8496" width="18" height="23" fill="black">
<rect fill="white" x="12.5508" y="45.8496" width="18" height="23"/>
<path fill-rule="evenodd" clip-rule="evenodd" d="M23.6124 56.158C25.0501 55.4383 26.0371 53.9517 26.0371 52.2346C26.0371 49.8128 24.0739 47.8496 21.6521 47.8496C19.2304 47.8496 17.2672 49.8128 17.2672 52.2346C17.2672 53.9499 18.2522 55.4353 19.6874 56.1558C17.3107 56.7603 15.0684 58.2289 15.0684 58.906C14.3842 61.9833 14.3723 63.7618 15.0684 66.8499H28.2233C28.7306 63.9308 28.8171 62.2422 28.2233 58.906C28.2233 58.2299 25.9862 56.7639 23.6124 56.158Z"/>
</mask>
<path fill-rule="evenodd" clip-rule="evenodd" d="M23.6124 56.158C25.0501 55.4383 26.0371 53.9517 26.0371 52.2346C26.0371 49.8128 24.0739 47.8496 21.6521 47.8496C19.2304 47.8496 17.2672 49.8128 17.2672 52.2346C17.2672 53.9499 18.2522 55.4353 19.6874 56.1558C17.3107 56.7603 15.0684 58.2289 15.0684 58.906C14.3842 61.9833 14.3723 63.7618 15.0684 66.8499H28.2233C28.7306 63.9308 28.8171 62.2422 28.2233 58.906C28.2233 58.2299 25.9862 56.7639 23.6124 56.158Z" fill="#5D4B51"/>
<path d="M23.6124 56.158L22.9528 54.8403L19.4204 56.6087L23.248 57.5858L23.6124 56.158ZM19.6874 56.1558L20.0507 57.5839L23.8776 56.6105L20.3486 54.8389L19.6874 56.1558ZM15.0684 58.906L16.5069 59.2258L16.542 59.0678V58.906H15.0684ZM15.0684 66.8499L13.631 67.1739L13.8901 68.3234H15.0684V66.8499ZM28.2233 66.8499V68.3234H29.4628L29.6751 67.1022L28.2233 66.8499ZM28.2233 58.906H26.7497V59.0361L26.7725 59.1642L28.2233 58.906ZM24.5635 52.2346C24.5635 53.3725 23.9109 54.3607 22.9528 54.8403L24.2721 57.4757C26.1892 56.5159 27.5106 54.5309 27.5106 52.2346H24.5635ZM21.6521 49.3232C23.26 49.3232 24.5635 50.6266 24.5635 52.2346H27.5106C27.5106 48.999 24.8877 46.376 21.6521 46.376V49.3232ZM18.7407 52.2346C18.7407 50.6266 20.0442 49.3232 21.6521 49.3232V46.376C18.4166 46.376 15.7936 48.999 15.7936 52.2346H18.7407ZM20.3486 54.8389C19.392 54.3587 18.7407 53.3713 18.7407 52.2346H15.7936C15.7936 54.5285 17.1123 56.5119 19.0263 57.4727L20.3486 54.8389ZM16.542 58.906C16.542 59.2087 16.4264 59.3874 16.421 59.3959C16.4045 59.4225 16.415 59.3989 16.4872 59.3282C16.6299 59.1883 16.8863 58.9878 17.2585 58.7589C17.9974 58.3046 19.0152 57.8473 20.0507 57.5839L19.3242 54.7277C17.9829 55.0689 16.6912 55.648 15.7148 56.2484C15.2293 56.5469 14.7766 56.8782 14.4247 57.2231C14.2496 57.3946 14.0662 57.6016 13.9178 57.8405C13.7806 58.0613 13.5949 58.434 13.5949 58.906H16.542ZM16.5059 66.5258C16.1716 65.043 16.023 63.9428 16.0244 62.8757C16.0257 61.8076 16.1772 60.7084 16.5069 59.2258L13.63 58.5861C13.2754 60.1809 13.0789 61.5096 13.0772 62.8721C13.0756 64.2356 13.2691 65.5687 13.631 67.1739L16.5059 66.5258ZM28.2233 65.3763H15.0684V68.3234H28.2233V65.3763ZM26.7725 59.1642C27.3326 62.3107 27.2533 63.8251 26.7715 66.5975L29.6751 67.1022C30.2079 64.0365 30.3017 62.1738 29.674 58.6478L26.7725 59.1642ZM23.248 57.5858C24.2824 57.8498 25.2984 58.307 26.0357 58.7607C26.4071 58.9892 26.6628 59.1894 26.8051 59.3288C26.877 59.3994 26.8873 59.4228 26.8707 59.396C26.8653 59.3873 26.7497 59.2086 26.7497 58.906H29.6968C29.6968 58.4343 29.5114 58.062 29.3743 57.8413C29.2261 57.6026 29.0431 57.3958 28.8682 57.2244C28.5168 56.8799 28.0649 56.5489 27.5803 56.2507C26.6056 55.6509 25.3162 55.0721 23.9769 54.7302L23.248 57.5858Z" fill="#F9F9F9" mask="url(#path-27-outside-2_8763_322091)"/>
<mask id="path-29-outside-3_8763_322091" maskUnits="userSpaceOnUse" x="53.2012" y="45.8496" width="18" height="23" fill="black">
<rect fill="white" x="53.2012" y="45.8496" width="18" height="23"/>
<path fill-rule="evenodd" clip-rule="evenodd" d="M64.2628 56.158C65.7005 55.4383 66.6875 53.9517 66.6875 52.2346C66.6875 49.8128 64.7243 47.8496 62.3025 47.8496C59.8808 47.8496 57.9176 49.8128 57.9176 52.2346C57.9176 53.9499 58.9026 55.4353 60.3378 56.1558C57.9611 56.7603 55.7188 58.2289 55.7188 58.906C55.0346 61.9833 55.0227 63.7618 55.7188 66.8499H68.8737C69.381 63.9308 69.4675 62.2422 68.8737 58.906C68.8737 58.2299 66.6366 56.7639 64.2628 56.158Z"/>
</mask>
<path fill-rule="evenodd" clip-rule="evenodd" d="M64.2628 56.158C65.7005 55.4383 66.6875 53.9517 66.6875 52.2346C66.6875 49.8128 64.7243 47.8496 62.3025 47.8496C59.8808 47.8496 57.9176 49.8128 57.9176 52.2346C57.9176 53.9499 58.9026 55.4353 60.3378 56.1558C57.9611 56.7603 55.7188 58.2289 55.7188 58.906C55.0346 61.9833 55.0227 63.7618 55.7188 66.8499H68.8737C69.381 63.9308 69.4675 62.2422 68.8737 58.906C68.8737 58.2299 66.6366 56.7639 64.2628 56.158Z" fill="#5D4B51"/>
<path d="M64.2628 56.158L63.6032 54.8403L60.0708 56.6087L63.8984 57.5858L64.2628 56.158ZM60.3378 56.1558L60.7011 57.5839L64.528 56.6105L60.999 54.8389L60.3378 56.1558ZM55.7188 58.906L57.1573 59.2258L57.1924 59.0678V58.906H55.7188ZM55.7188 66.8499L54.2814 67.1739L54.5405 68.3234H55.7188V66.8499ZM68.8737 66.8499V68.3234H70.1132L70.3255 67.1022L68.8737 66.8499ZM68.8737 58.906H67.4001V59.0361L67.4229 59.1642L68.8737 58.906ZM65.2139 52.2346C65.2139 53.3725 64.5613 54.3607 63.6032 54.8403L64.9225 57.4757C66.8396 56.5159 68.161 54.5309 68.161 52.2346H65.2139ZM62.3025 49.3232C63.9104 49.3232 65.2139 50.6266 65.2139 52.2346H68.161C68.161 48.999 65.5381 46.376 62.3025 46.376V49.3232ZM59.3911 52.2346C59.3911 50.6266 60.6946 49.3232 62.3025 49.3232V46.376C59.067 46.376 56.444 48.999 56.444 52.2346H59.3911ZM60.999 54.8389C60.0424 54.3587 59.3911 53.3713 59.3911 52.2346H56.444C56.444 54.5285 57.7627 56.5119 59.6767 57.4727L60.999 54.8389ZM57.1924 58.906C57.1924 59.2087 57.0767 59.3874 57.0714 59.3959C57.0549 59.4225 57.0653 59.3989 57.1376 59.3282C57.2803 59.1883 57.5367 58.9878 57.9089 58.7589C58.6478 58.3046 59.6656 57.8473 60.7011 57.5839L59.9746 54.7277C58.6333 55.0689 57.3416 55.648 56.3652 56.2484C55.8797 56.5469 55.427 56.8782 55.0751 57.2231C54.9 57.3946 54.7166 57.6016 54.5682 57.8405C54.431 58.0613 54.2453 58.434 54.2453 58.906H57.1924ZM57.1563 66.5258C56.822 65.043 56.6734 63.9428 56.6747 62.8757C56.6761 61.8076 56.8276 60.7084 57.1573 59.2258L54.2804 58.5861C53.9258 60.1809 53.7293 61.5096 53.7276 62.8721C53.7259 64.2356 53.9195 65.5687 54.2814 67.1739L57.1563 66.5258ZM68.8737 65.3763H55.7188V68.3234H68.8737V65.3763ZM67.4229 59.1642C67.983 62.3107 67.9037 63.8251 67.4219 66.5975L70.3255 67.1022C70.8583 64.0365 70.952 62.1738 70.3244 58.6478L67.4229 59.1642ZM63.8984 57.5858C64.9328 57.8498 65.9488 58.307 66.6861 58.7607C67.0575 58.9892 67.3132 59.1894 67.4554 59.3288C67.5274 59.3994 67.5377 59.4228 67.5211 59.396C67.5156 59.3873 67.4001 59.2086 67.4001 58.906H70.3472C70.3472 58.4343 70.1618 58.062 70.0247 57.8413C69.8765 57.6026 69.6935 57.3958 69.5186 57.2244C69.1672 56.8799 68.7153 56.5489 68.2307 56.2507C67.256 55.6509 65.9666 55.0721 64.6273 54.7302L63.8984 57.5858Z" fill="#F9F9F9" mask="url(#path-29-outside-3_8763_322091)"/>
</g>
<circle cx="42" cy="42" r="40" stroke="#F1FCFF" stroke-width="4"/>
</svg>
